<svg t="1595578623724" class="icon" viewBox="0 0 1051 1024" version="1.1" xmlns="http://www.w3.org/2000/svg" p-id="5168" width="200" height="200"><path d="M656.411676 507.820973L956.499027 215.648865a92.076973 92.076973 0 0 0 0-132.760216 98.220973 98.220973 0 0 0-136.358054 0L520.025946 375.005405 219.993946 82.888649a98.220973 98.220973 0 0 0-136.38573 0 92.076973 92.076973 0 0 0 0 132.760216l300.087352 292.172108L83.580541 799.993081a92.076973 92.076973 0 0 0 0 132.760216c18.072216 17.60173 42.620541 27.537297 68.192864 27.454271 25.572324 0 50.092973-9.852541 68.192865-27.454271L520.025946 640.581189l300.087351 292.172108c18.044541 17.60173 42.592865 27.537297 68.165189 27.454271 25.572324 0 50.120649-9.852541 68.192865-27.454271a92.076973 92.076973 0 0 0 0-132.760216L656.411676 507.820973z" p-id="5169" fill="#00F6FF"></path></svg>