<?xml version="1.0" standalone="no"?><!DOCTYPE svg PUBLIC "-//W3C//DTD SVG 1.1//EN" "http://www.w3.org/Graphics/SVG/1.1/DTD/svg11.dtd"><svg t="1589342087994" class="icon" viewBox="0 0 1024 1024" version="1.1" xmlns="http://www.w3.org/2000/svg" p-id="4584" xmlns:xlink="http://www.w3.org/1999/xlink" width="200" height="200"><defs><style type="text/css"></style></defs><path d="M17.066667 2.844444C11.377778 2.844444 8.533333 5.688889 5.688889 8.533333 2.844444 11.377778 0 14.222222 0 19.911111v364.088889c0 2.844444 0 5.688889 2.844444 5.688889h5.688889l122.311111-122.311111 164.977778 164.977778c2.844444 2.844444 8.533333 5.688889 11.377778 5.688888 5.688889 0 8.533333-2.844444 11.377778-5.688888l110.933333-110.933334c2.844444-2.844444 5.688889-8.533333 5.688889-11.377778 0-5.688889-2.844444-8.533333-5.688889-11.377777l-159.288889-170.666667L389.688889 8.533333c2.844444-2.844444 2.844444-2.844444 0-5.688889 0-2.844444-2.844444-2.844444-2.844445-2.844444L17.066667 2.844444zM17.066667 1024c-5.688889 0-8.533333-2.844444-11.377778-5.688889-2.844444-2.844444-5.688889-8.533333-5.688889-11.377778V640c0-2.844444 0-5.688889 2.844444-5.688889h5.688889l122.311111 122.311111 164.977778-164.977778c2.844444-2.844444 8.533333-5.688889 11.377778-5.688888 5.688889 0 8.533333 2.844444 11.377778 5.688888l110.933333 110.933334c2.844444 2.844444 5.688889 8.533333 5.688889 11.377778s-2.844444 8.533333-5.688889 11.377777l-164.977778 164.977778 119.466667 119.466667c2.844444 2.844444 2.844444 2.844444 0 5.688889 0 2.844444-2.844444 2.844444-5.688889 2.844444L17.066667 1024zM1006.933333 2.844444c5.688889 0 8.533333 2.844444 11.377778 5.688889 2.844444 2.844444 5.688889 5.688889 5.688889 11.377778v364.088889c0 2.844444 0 5.688889-2.844444 5.688889h-5.688889l-122.311111-122.311111-164.977778 164.977778c-2.844444 2.844444-8.533333 5.688889-11.377778 5.688888-5.688889 0-8.533333-2.844444-11.377778-5.688888l-110.933333-110.933334c-2.844444-2.844444-5.688889-8.533333-5.688889-11.377778 0-5.688889 2.844444-8.533333 5.688889-11.377777l164.977778-164.977778L640 14.222222c-2.844444-2.844444-2.844444-2.844444 0-5.688889-5.688889-8.533333-2.844444-8.533333-2.844444-8.533333l369.777777 2.844444z m0 1021.155556c5.688889 0 8.533333-2.844444 11.377778-5.688889 2.844444-2.844444 5.688889-8.533333 5.688889-11.377778V640c0-2.844444 0-5.688889-2.844444-5.688889h-5.688889l-122.311111 122.311111-164.977778-164.977778c-2.844444-2.844444-8.533333-5.688889-11.377778-5.688888-5.688889 0-8.533333 2.844444-11.377778 5.688888l-110.933333 110.933334c-2.844444 2.844444-5.688889 8.533333-5.688889 11.377778s2.844444 8.533333 5.688889 11.377777l164.977778 164.977778-119.466667 119.466667c-2.844444 2.844444-2.844444 2.844444 0 5.688889 0 2.844444 2.844444 2.844444 5.688889 2.844444l361.244444 5.688889z" fill="#1296db" p-id="4585"></path></svg>