<?xml version="1.0" standalone="no"?><!DOCTYPE svg PUBLIC "-//W3C//DTD SVG 1.1//EN" "http://www.w3.org/Graphics/SVG/1.1/DTD/svg11.dtd"><svg t="1592386510367" class="icon" viewBox="0 0 1024 1024" version="1.1" xmlns="http://www.w3.org/2000/svg" p-id="2766" xmlns:xlink="http://www.w3.org/1999/xlink" width="200" height="200"><defs><style type="text/css"></style></defs><path d="M929.792 51.2v830.976c14.848 1.536 28.16 3.072 42.496 4.096V972.8H51.712v-87.04c12.8-1.024 25.088-1.536 41.472-2.56V51.2h836.608z m-372.224 275.456v-92.16H465.92v92.16h91.648z m0.512 92.672H466.944v90.624H558.08V419.328z m0 464.384v-91.136H466.944v91.136H558.08zM280.064 235.008v91.136h90.112V235.008H280.064z m463.872 0h-90.624v91.136h90.624V235.008zM370.688 510.464V419.84H280.064v90.624h90.624z m373.248-91.136h-90.112v90.624h90.112V419.328zM558.08 696.32v-89.6H466.432V696.32H558.08z m-187.392 0.512v-89.6H280.576v89.6h90.112z m282.624-90.624v89.6h89.6v-89.6h-89.6z" fill="#1296db" p-id="2767"></path></svg>