<?xml version="1.0" standalone="no"?><!DOCTYPE svg PUBLIC "-//W3C//DTD SVG 1.1//EN" "http://www.w3.org/Graphics/SVG/1.1/DTD/svg11.dtd"><svg t="1592211678348" class="icon" viewBox="0 0 1024 1024" version="1.1" xmlns="http://www.w3.org/2000/svg" p-id="12349" xmlns:xlink="http://www.w3.org/1999/xlink" width="200" height="200"><defs><style type="text/css"></style></defs><path d="M512.3 116C371 116 256.5 230.6 256.5 371.8s255.8 426.4 255.8 426.4 255.8-285.1 255.8-426.4S653.6 116 512.3 116z m0 362.5c-70.6 0-127.9-57.3-127.9-127.9 0-70.7 57.3-127.9 127.9-127.9s128 57.2 128 127.9c0 70.6-57.3 127.9-128 127.9z" p-id="12350" fill="#1296db"></path><path d="M667.3 660.8c-7.4 10.4-14.8 20.6-22.2 30.6 96.5 18.5 157.2 55.5 157.2 89.8 0 48.1-119.1 101.8-290 101.8s-290-53.6-290-101.8c0-34.3 60.6-71.3 157.2-89.8-7.4-10-14.8-20.2-22.2-30.6-102.3 22.4-169.1 66.8-169.1 120.4 0 77.5 139.3 135.9 324.1 135.9s324.1-58.4 324.1-135.9c0-53.6-66.8-98-169.1-120.4z" p-id="12351" fill="#1296db"></path></svg>