# 3ds Max Wavefront OBJ Exporter v0.97b - (c)2007 guruware
# File Created: 21.07.2020 13:37:29

mtllib house03.mtl

#
# object Block_76013101
#

#
# object Block_76013101
#

#
# object Block_76013101
#

#
# object Block_76013101
#

#
# object Block_76013101
#

#
# object Block_76013102
#

#
# object Block_76013103
#

#
# object Block_76013104
#

#
# object Block_76013105
#

#
# object Block_76013106
#

#
# object Block_76013107
#

#
# object Block_76013108
#

#
# object Block_76013101
#

#
# object Block_76013101
#

#
# object Block_76013109
#

#
# object Block_76013110
#

#
# object Block_76013111
#

#
# object Block_76013112
#

#
# object Block_76013113
#

#
# object Block_76013114
#

#
# object Block_76013115
#

#
# object Line1706
#

v  -1138.4907 3797.6760 3283.2610
v  -482.2408 3797.6758 3283.2610
v  -482.2408 3797.6758 2887.5422
v  189.6342 3797.6758 2887.5422
v  189.6342 3797.6758 3283.2610
v  853.6342 3797.6755 3283.2610
v  853.6342 3797.6755 1701.7922
v  189.6342 3797.6758 1701.7922
v  189.6342 3797.6758 2528.8079
v  -482.2408 3797.6758 2528.8079
v  -482.2408 3797.6758 1701.7922
v  -1138.4907 3797.6760 1701.7922
v  853.6337 1242.8967 1701.7922
v  189.6337 1242.8969 1701.7922
v  189.6337 1242.8969 2528.8079
v  -482.2413 1242.8970 2528.8079
v  -482.2413 1242.8970 1701.7922
v  -1138.4913 1242.8970 1701.7922
v  -1138.4913 1242.8970 3283.2610
v  -482.2413 1242.8970 3283.2610
v  -482.2413 1242.8970 2887.5422
v  189.6337 1242.8969 2887.5422
v  189.6337 1242.8969 3283.2610
v  853.6337 1242.8967 3283.2610
# 24 vertices

vn 0.0000 0.7071 0.7071
vn 0.5774 0.5774 0.5774
vn 0.5774 -0.5774 0.5774
vn -0.5774 -0.5774 0.5774
vn -0.5774 0.5774 0.5774
vn 0.0000 0.7071 -0.7071
vn -0.5774 0.5774 -0.5774
vn -0.5774 -0.5774 -0.5774
vn 0.5774 -0.5774 -0.5774
vn 0.5774 0.5774 -0.5774
vn 0.0000 0.0000 -1.0000
vn -0.7071 0.0000 -0.7071
vn 0.7071 -0.0000 -0.7071
vn 0.0000 0.0000 1.0000
vn 0.7071 -0.0000 0.7071
vn -0.7071 0.0000 0.7071
# 16 vertex normals

o Line1706
g Line1706
usemtl wire_228214153
s 1
f 1//1 2//2 3//3 4//4 5//5 6//1 7//6 8//7 9//8 10//9 11//10 12//6 
s off
f 13//11 14//12 8//7 7//6 
f 14//12 15//12 9//8 8//7 
f 15//12 16//13 10//9 9//8 
f 16//13 17//13 11//10 10//9 
f 17//13 18//11 12//6 11//10 
f 19//14 20//15 2//2 1//1 
f 20//15 21//15 3//3 2//2 
f 21//15 22//16 4//4 3//3 
f 22//16 23//16 5//5 4//4 
f 23//16 24//14 6//1 5//5 
# 11 polygons

#
# object ??008
#

v  -1138.4913 1242.8970 1701.7922
v  -1138.4913 1242.8970 3283.2610
v  -1138.4907 3797.6760 3283.2610
v  -1138.4907 3797.6760 1701.7922
v  853.6337 1242.8967 3283.2610
v  853.6337 1242.8967 1701.7922
v  853.6342 3797.6755 1701.7922
v  853.6342 3797.6755 3283.2610
# 8 vertices

vn -1.0000 0.0000 -0.0000
vn 1.0000 -0.0000 -0.0000
# 2 vertex normals

o ??008
g ??008
usemtl wire_166229229
s off
f 25//17 26//17 27//17 28//17 
f 29//18 30//18 31//18 32//18 
# 2 polygons

#
# object Line3401
#

v  -1138.4912 1242.9517 3283.2571
v  853.6338 1242.9514 3283.2571
v  853.6338 1242.9514 1701.7883
v  -1138.4912 1242.9517 1701.7883
v  -1138.4913 298.0697 3283.2571
v  853.6337 298.0694 3283.2571
v  853.6337 298.0694 1701.7883
v  -1138.4913 298.0697 1701.7883
# 8 vertices

vn -0.5774 0.5774 0.5774
vn 0.5774 0.5774 0.5774
vn 0.5774 0.5774 -0.5774
vn -0.5774 0.5774 -0.5774
vn -0.7071 0.0000 0.7071
vn 0.7071 -0.0000 0.7071
vn 0.7071 -0.0000 -0.7071
vn -0.7071 0.0000 -0.7071
# 8 vertex normals

o Line3401
g Line3401
usemtl wire_007003003
s 1
f 33//19 34//20 35//21 36//22 
s off
f 37//23 38//24 34//20 33//19 
f 38//24 39//25 35//21 34//20 
f 39//25 40//26 36//22 35//21 
f 40//26 37//23 33//19 36//22 
# 5 polygons

