# 3ds Max Wavefront OBJ Exporter v0.97b - (c)2007 guruware
# File Created: 21.07.2020 13:36:57

mtllib house02.mtl

#
# object Block_76013101
#

#
# object Block_76013101
#

#
# object Block_76013101
#

#
# object Block_76013101
#

#
# object Block_76013101
#

#
# object Line1697
#

v  2337.0088 435.8752 1826.2416
v  1866.1337 435.8753 1816.3978
v  1864.1337 435.8753 1915.6791
v  1734.0087 435.8753 1913.0072
v  1731.3837 435.8753 2028.8822
v  2222.2588 435.8752 2039.1478
v  2223.6338 435.8752 1971.5072
v  2333.8838 435.8752 1973.7572
v  1734.0087 298.0694 1913.0072
v  1731.3837 298.0694 2028.8822
v  2222.2588 298.0693 2039.1478
v  2223.6338 298.0693 1971.5072
v  2333.8838 298.0693 1973.7572
v  2337.0088 298.0693 1826.2416
v  1866.1337 298.0694 1816.3978
v  1864.1337 298.0694 1915.6791
# 16 vertices

vn 0.5893 0.5774 -0.5650
vn -0.5654 0.5773 -0.5891
vn -0.5655 -0.5774 -0.5889
vn -0.5647 0.5774 -0.5897
vn -0.5898 0.5772 0.5648
vn 0.5654 0.5774 0.5891
vn 0.5655 -0.5774 0.5890
vn 0.5652 0.5774 0.5892
vn -0.6918 0.0000 -0.7221
vn -0.7224 0.0000 0.6915
vn 0.6923 -0.0000 0.7216
vn 0.6926 -0.0000 0.7214
vn 0.6923 -0.0000 0.7217
vn 0.7218 -0.0000 -0.6921
vn -0.6924 0.0000 -0.7215
vn -0.6925 0.0000 -0.7214
# 16 vertex normals

o Line1697
g Line1697
usemtl wire_115115115
s 1
f 1//1 2//2 3//3 4//4 5//5 6//6 7//7 8//8 
s off
f 9//9 10//10 5//5 4//4 
f 10//10 11//11 6//6 5//5 
f 11//11 12//12 7//7 6//6 
f 12//12 13//13 8//8 7//7 
f 13//13 14//14 1//1 8//8 
f 14//14 15//15 2//2 1//1 
f 15//15 16//16 3//3 2//2 
f 16//16 9//9 4//4 3//3 
# 9 polygons

#
# object Line1698
#

v  2912.6338 435.8645 1843.5385
v  2385.2588 435.8646 1827.2260
v  2382.3213 455.5603 1924.6791
v  2909.5713 455.5602 1940.9213
v  2912.6338 298.0692 1843.5385
v  2385.2588 298.0693 1827.2260
v  2379.3838 298.0693 2022.1322
v  2379.3838 435.8646 2022.1322
v  2906.5088 298.0692 2038.3041
v  2906.5088 435.8645 2038.3041
# 10 vertices

vn 0.6078 0.5119 -0.6071
vn -0.5692 0.5119 -0.6434
vn -0.6648 0.7467 -0.0201
vn 0.6648 0.7467 0.0208
vn 0.7288 -0.0000 -0.6847
vn -0.6853 0.0000 -0.7283
vn -0.7282 0.0000 0.6854
vn -0.6073 0.5120 0.6075
vn 0.6848 -0.0000 0.7287
vn 0.5688 0.5119 0.6437
# 10 vertex normals

o Line1698
g Line1698
usemtl wire_028089177
s 1
f 17//17 18//18 19//19 20//20 
s off
f 21//21 22//22 18//18 17//17 
f 22//22 23//23 24//24 19//19 18//18 
f 23//23 25//25 26//26 24//24 
f 25//25 21//21 17//17 20//20 26//26 
s 1
f 19//19 24//24 26//26 20//20 
# 6 polygons

#
# object Line1699
#

v  2257.3838 435.8646 2097.3665
v  1859.8838 435.8647 2088.9290
v  1857.8213 455.5604 2189.6868
v  2255.2588 455.5603 2198.1243
v  2257.3838 298.0693 2097.3665
v  1859.8838 298.0694 2088.9290
v  1855.7588 298.0694 2290.4446
v  1855.7588 435.8647 2290.4446
v  2253.1338 298.0693 2298.8821
v  2253.1338 435.8646 2298.8821
# 10 vertices

vn 0.6013 0.5141 -0.6117
vn -0.5751 0.5141 -0.6364
vn -0.6662 0.7456 -0.0137
vn 0.6662 0.7456 0.0141
vn 0.7219 -0.0000 -0.6920
vn -0.6922 0.0000 -0.7217
vn -0.7217 0.0000 0.6922
vn -0.6010 0.5141 0.6119
vn 0.6920 -0.0000 0.7219
vn 0.5749 0.5140 0.6366
# 10 vertex normals

o Line1699
g Line1699
usemtl wire_028089177
s 1
f 27//27 28//28 29//29 30//30 
s off
f 31//31 32//32 28//28 27//27 
f 32//32 33//33 34//34 29//29 28//28 
f 33//33 35//35 36//36 34//34 
f 35//35 31//31 27//27 30//30 36//36 
s 1
f 29//29 34//34 36//36 30//30 
# 6 polygons

#
# object Line1700
#

v  1729.6338 494.9197 2337.4133
v  1726.5088 514.6155 2437.6790
v  2511.0088 514.6154 2454.4133
v  2513.1338 494.9196 2354.1477
v  1729.6338 298.0694 2337.4133
v  1723.3838 298.0694 2537.9446
v  1723.3838 494.9197 2537.9446
v  2508.8838 298.0692 2554.6790
v  2508.8838 494.9196 2554.6790
v  2513.1338 298.0692 2354.1477
# 10 vertices

vn -0.5714 0.5141 -0.6397
vn -0.6659 0.7458 -0.0199
vn 0.6660 0.7458 0.0141
vn 0.6014 0.5138 -0.6119
vn -0.6884 0.0000 -0.7254
vn -0.7253 0.0000 0.6884
vn -0.6046 0.5135 0.6088
vn 0.6918 -0.0000 0.7220
vn 0.5748 0.5138 0.6368
vn 0.7221 -0.0000 -0.6918
# 10 vertex normals

o Line1700
g Line1700
usemtl wire_008061138
s 1
f 37//37 38//38 39//39 40//40 
s off
f 41//41 42//42 43//43 38//38 37//37 
f 42//42 44//44 45//45 43//43 
f 44//44 46//46 40//40 39//39 45//45 
f 46//46 41//41 37//37 40//40 
s 1
f 38//38 43//43 45//45 39//39 
# 6 polygons

#
# object Line1701
#

v  1722.3838 494.9197 2701.4641
v  1719.2588 514.6155 2801.7297
v  2503.7588 514.6154 2818.4641
v  2505.8838 494.9196 2718.1985
v  1722.3838 298.0694 2701.4641
v  1716.1338 298.0694 2901.9954
v  1716.1338 494.9197 2901.9954
v  2501.6338 298.0692 2918.7297
v  2501.6338 494.9196 2918.7297
v  2505.8838 298.0692 2718.1985
# 10 vertices

vn -0.5714 0.5141 -0.6397
vn -0.6659 0.7458 -0.0199
vn 0.6660 0.7458 0.0141
vn 0.6014 0.5138 -0.6119
vn -0.6884 0.0000 -0.7254
vn -0.7253 0.0000 0.6884
vn -0.6046 0.5135 0.6088
vn 0.6918 -0.0000 0.7220
vn 0.5748 0.5138 0.6368
vn 0.7221 -0.0000 -0.6918
# 10 vertex normals

o Line1701
g Line1701
usemtl wire_008061138
s 1
f 47//47 48//48 49//49 50//50 
s off
f 51//51 52//52 53//53 48//48 47//47 
f 52//52 54//54 55//55 53//53 
f 54//54 56//56 50//50 49//49 55//55 
f 56//56 51//51 47//47 50//50 
s 1
f 48//48 53//53 55//55 49//49 
# 6 polygons

#
# object Line1702
#

v  1714.8838 494.9197 2977.8118
v  1711.7588 514.6155 3078.0774
v  2496.2588 514.6154 3094.8118
v  2498.3838 494.9196 2994.5461
v  1714.8838 298.0694 2977.8118
v  1708.6338 298.0694 3178.3430
v  1708.6338 494.9197 3178.3430
v  2494.1338 298.0692 3195.0774
v  2494.1338 494.9196 3195.0774
v  2498.3838 298.0692 2994.5461
# 10 vertices

vn -0.5714 0.5141 -0.6397
vn -0.6659 0.7458 -0.0199
vn 0.6660 0.7458 0.0141
vn 0.6014 0.5138 -0.6119
vn -0.6884 0.0000 -0.7254
vn -0.7253 0.0000 0.6884
vn -0.6046 0.5135 0.6088
vn 0.6918 -0.0000 0.7220
vn 0.5748 0.5138 0.6368
vn 0.7221 -0.0000 -0.6918
# 10 vertex normals

o Line1702
g Line1702
usemtl wire_008061138
s 1
f 57//57 58//58 59//59 60//60 
s off
f 61//61 62//62 63//63 58//58 57//57 
f 62//62 64//64 65//65 63//63 
f 64//64 66//66 60//60 59//59 65//65 
f 66//66 61//61 57//57 60//60 
s 1
f 58//58 63//63 65//65 59//59 
# 6 polygons

#
# object Line1703
#

v  2678.7588 494.9196 2964.8821
v  2779.1963 514.6154 2967.4836
v  2799.3213 514.6154 2182.7961
v  2699.0088 494.9196 2180.1946
v  2678.7588 298.0693 2964.8821
v  2879.6338 298.0692 2970.0852
v  2879.6338 494.9196 2970.0852
v  2899.6338 298.0692 2185.3977
v  2899.6338 494.9196 2185.3977
v  2699.0088 298.0692 2180.1946
# 10 vertices

vn -0.6394 0.5139 0.5719
vn -0.0173 0.7457 0.6660
vn 0.0172 0.7458 -0.6660
vn -0.6091 0.5138 -0.6042
vn -0.7251 0.0000 0.6886
vn 0.6887 -0.0000 0.7250
vn 0.6091 0.5139 0.6041
vn 0.7250 -0.0000 -0.6887
vn 0.6394 0.5138 -0.5720
vn -0.6886 0.0000 -0.7252
# 10 vertex normals

o Line1703
g Line1703
usemtl wire_028089177
s 1
f 67//67 68//68 69//69 70//70 
s off
f 71//71 72//72 73//73 68//68 67//67 
f 72//72 74//74 75//75 73//73 
f 74//74 76//76 70//70 69//69 75//75 
f 76//76 71//71 67//67 70//70 
s 1
f 68//68 73//73 75//75 69//69 
# 6 polygons

#
# object Line1704
#

v  2743.8838 416.1795 2993.9915
v  2740.0088 416.1795 3174.5540
v  2808.6338 435.8753 3175.9602
v  2812.3838 435.8753 2995.3977
v  2743.8838 298.0692 2993.9915
v  2740.0088 298.0692 3174.5540
v  2877.2588 298.0692 3177.3665
v  2877.2588 416.1795 3177.3665
v  2880.8838 298.0692 2996.8040
v  2880.8838 416.1795 2996.8040
# 10 vertices

vn -0.6303 0.4841 -0.6069
vn -0.6551 0.4843 0.5799
vn -0.0134 0.7600 0.6498
vn 0.0133 0.7600 -0.6497
vn -0.6921 0.0000 -0.7218
vn -0.7218 0.0000 0.6921
vn 0.6926 -0.0000 0.7213
vn 0.6306 0.4843 0.6064
vn 0.7213 -0.0000 -0.6926
vn 0.6548 0.4842 -0.5803
# 10 vertex normals

o Line1704
g Line1704
usemtl wire_135059008
s 1
f 77//77 78//78 79//79 80//80 
s off
f 81//81 82//82 78//78 77//77 
f 82//82 83//83 84//84 79//79 78//78 
f 83//83 85//85 86//86 84//84 
f 85//85 81//81 77//77 80//80 86//86 
s 1
f 79//79 84//84 86//86 80//80 
# 6 polygons

#
# object Line1705
#

v  2873.1338 416.1794 3315.7415
v  2540.7588 416.1795 3311.2415
v  2539.6338 435.8753 3397.1633
v  2872.0088 435.8752 3401.6633
v  2873.1338 298.0692 3315.7415
v  2540.7588 298.0693 3311.2415
v  2538.5088 298.0693 3483.0852
v  2538.5088 416.1795 3483.0852
v  2870.8838 298.0692 3487.5852
v  2870.8838 416.1794 3487.5852
# 10 vertices

vn 0.5985 0.5031 -0.6235
vn -0.5817 0.5030 -0.6392
vn -0.6601 0.7512 -0.0087
vn 0.6601 0.7512 0.0087
vn 0.7165 -0.0000 -0.6976
vn -0.6976 0.0000 -0.7165
vn -0.7165 0.0000 0.6976
vn -0.5985 0.5031 0.6235
vn 0.6976 -0.0000 0.7165
vn 0.5817 0.5030 0.6392
# 10 vertex normals

o Line1705
g Line1705
usemtl wire_135059008
s 1
f 87//87 88//88 89//89 90//90 
s off
f 91//91 92//92 88//88 87//87 
f 92//92 93//93 94//94 89//89 88//88 
f 93//93 95//95 96//96 94//94 
f 95//95 91//91 87//87 90//90 96//96 
s 1
f 89//89 94//94 96//96 90//90 
# 6 polygons

#
# object Block_76013101
#

#
# object Block_76013101
#

