# 3ds Max Wavefront OBJ Exporter v0.97b - (c)2007 guruware
# 创建的文件:26.12.2019 11:30:59

mtllib a.mtl

#
# object 1000_600_Z2__203178_
#

v  1019.5504 22382.0000 -377.3652
v  1019.5504 22382.0000 164.1385
v  1019.5504 -270.7500 164.1385
v  1019.5504 -270.7500 -377.3652
v  117.0430 -270.7500 -377.3652
v  117.0430 22382.0000 -377.3652
v  117.0430 -270.7500 164.1385
v  117.0430 22382.0000 164.1385
# 8 vertices

vn 1.0000 0.0000 -0.0000
vn 0.0000 0.0000 -1.0000
vn -1.0000 0.0000 -0.0000
vn 0.0000 0.0000 1.0000
vn 0.0000 1.0000 -0.0000
vn 0.0000 -1.0000 -0.0000
# 6 vertex normals

vt -0.9843 -41.1745 0.0000
vt 0.9843 -41.1745 0.0000
vt 0.9843 41.1745 0.0000
vt -0.9843 41.1745 0.0000
vt -41.1745 -1.6404 0.0000
vt 41.1745 -1.6404 0.0000
vt 41.1745 1.6404 0.0000
vt -41.1745 1.6404 0.0000
vt -1.6404 -0.9843 0.0000
vt 1.6404 -0.9843 0.0000
vt 1.6404 0.9843 0.0000
vt -1.6404 0.9843 0.0000
# 12 texture coords

o 1000_600_Z2__203178_
g 1000_600_Z2__203178_
usemtl wire_204204204
s off
f 1/1/1 2/2/1 3/3/1 4/4/1 
f 5/5/2 6/6/2 1/7/2 4/8/2 
f 5/1/3 7/2/3 8/3/3 6/4/3 
f 3/5/4 2/6/4 8/7/4 7/8/4 
f 8/9/5 2/10/5 1/11/5 6/12/5 
f 5/9/6 4/10/6 3/11/6 7/12/6 
# 6 polygons

