# 3ds Max Wavefront OBJ Exporter v0.97b - (c)2007 guruware
# 创建的文件:19.10.2020 18:22:54

mtllib zn_river.mtl

#
# object Line011
#

v  81.2419 -12.8016 167.8084
v  71.8180 -12.8016 137.9054
v  39.5933 -12.8016 142.9600
v  -1.8052 -12.8016 218.7866
v  -108.5066 -12.8016 -493.6983
v  -127.4307 -12.8016 -489.7382
v  -103.8690 -12.8016 -452.2774
v  -96.1469 -12.8016 -480.7611
v  -139.1115 -12.8016 -460.6748
v  -120.6587 -12.8016 -379.2312
v  -153.1056 -12.8016 -379.1830
v  -134.2406 -12.8016 -319.2180
v  -155.0671 -12.8016 -265.3305
v  -174.3431 -12.8016 -322.7945
v  -187.2774 -12.8016 -271.4273
v  -170.5128 -12.8016 -227.8668
v  -202.8181 -12.8016 -213.4944
v  -195.2882 -12.8016 -230.2952
v  -159.5038 -12.8016 -201.4120
v  -171.0888 -12.8016 -183.0661
v  -206.0020 -12.8016 -181.6317
v  -182.3124 -12.8016 -92.9760
v  -208.3888 -12.8016 -39.0382
v  -215.6508 -12.8016 -94.8298
v  -234.0889 -12.8016 -46.9381
v  -219.7199 -12.8016 -8.4509
v  -247.8929 -12.8016 -6.3848
v  -249.6289 -12.8016 20.7467
v  -204.3874 -12.8016 30.8129
v  -187.4027 -12.8016 89.9924
v  -106.1022 -12.8016 138.0552
v  -165.9144 -12.8016 74.1558
v  -78.7609 -12.8016 178.9159
v  -116.9980 -12.8016 151.6908
v  -64.4547 -12.8016 149.1123
v  -30.3869 -12.8016 192.5263
v  -18.9857 -12.8016 135.7274
v  256.0351 -12.8016 350.7678
v  261.2220 -12.8016 326.4622
v  234.8666 -12.8016 300.3837
v  92.6324 -12.8016 337.4432
v  182.9785 -12.8016 295.1988
v  141.1946 -12.8016 285.5071
v  131.7706 -12.8016 255.6041
v  50.7248 -12.8016 288.3974
v  108.5565 -12.8016 239.4933
v  21.4663 -12.8016 249.3922
v  84.2488 -12.8016 206.7240
v  71.8180 -13.6603 137.9054
v  81.2419 -13.6603 167.8084
v  -1.8052 -13.6603 218.7866
v  39.5933 -13.6603 142.9600
v  -108.5066 -13.6603 -493.6983
v  -96.1469 -13.6603 -480.7611
v  -103.8690 -13.6603 -452.2774
v  -127.4307 -13.6603 -489.7382
v  -139.1115 -13.6603 -460.6748
v  -120.6587 -13.6603 -379.2312
v  -134.2406 -13.6603 -319.2180
v  -153.1056 -13.6603 -379.1830
v  -174.3431 -13.6603 -322.7945
v  -155.0671 -13.6603 -265.3305
v  -187.2774 -13.6603 -271.4273
v  -170.5128 -13.6603 -227.8668
v  -202.8181 -13.6603 -213.4944
v  -195.2882 -13.6603 -230.2952
v  -171.0888 -13.6603 -183.0661
v  -159.5038 -13.6603 -201.4120
v  -206.0020 -13.6603 -181.6317
v  -182.3124 -13.6603 -92.9760
v  -215.6508 -13.6603 -94.8298
v  -208.3888 -13.6603 -39.0382
v  -219.7199 -13.6603 -8.4509
v  -234.0889 -13.6603 -46.9381
v  -249.6289 -13.6603 20.7467
v  -247.8929 -13.6603 -6.3848
v  -204.3874 -13.6603 30.8129
v  -187.4027 -13.6603 89.9924
v  -165.9144 -13.6603 74.1558
v  -106.1022 -13.6603 138.0552
v  -116.9980 -13.6603 151.6908
v  -78.7609 -13.6603 178.9159
v  -64.4547 -13.6603 149.1123
v  -30.3869 -13.6603 192.5263
v  -18.9857 -13.6603 135.7274
v  256.0351 -13.6603 350.7678
v  92.6324 -13.6603 337.4432
v  234.8666 -13.6603 300.3837
v  261.2220 -13.6603 326.4622
v  141.1946 -13.6603 285.5071
v  182.9785 -13.6603 295.1988
v  131.7706 -13.6603 255.6041
v  50.7248 -13.6603 288.3974
v  108.5565 -13.6603 239.4933
v  21.4663 -13.6603 249.3922
v  84.2488 -13.6603 206.7240
# 96 vertices

vn 0.0000 1.0000 -0.0000
vn 0.0000 -1.0000 -0.0000
vn 0.9818 0.0000 -0.1900
vn 0.9538 0.0000 -0.3006
vn -0.1550 0.0000 -0.9879
vn -0.0164 0.0000 -0.9999
vn 0.7231 0.0000 -0.6908
vn -0.2048 0.0000 -0.9788
vn 0.9701 0.0000 0.2429
vn 0.9652 0.0000 0.2617
vn -0.9279 0.0000 -0.3729
vn -0.9621 0.0000 -0.2726
vn 0.9750 0.0000 0.2224
vn -0.9651 0.0000 -0.2620
vn 0.9566 0.0000 0.2914
vn -0.9543 0.0000 -0.2988
vn 0.9287 0.0000 0.3709
vn -0.9760 0.0000 -0.2178
vn 1.0000 0.0000 -0.0016
vn -0.9533 0.0000 -0.3021
vn -0.9663 0.0000 -0.2575
vn 0.9232 0.0000 -0.3842
vn 0.9416 0.0000 0.3369
vn 0.8455 0.0000 0.5339
vn -0.9945 0.0000 -0.1050
vn 0.9591 0.0000 0.2832
vn -0.9716 0.0000 -0.2368
vn 0.9201 0.0000 0.3918
vn -0.9401 0.0000 -0.3408
vn 1.0000 0.0000 -0.0088
vn -0.9809 0.0000 -0.1947
vn -0.9980 0.0000 -0.0639
vn 0.8530 0.0000 -0.5219
vn -0.7438 0.0000 0.6684
vn -0.7027 0.0000 0.7115
vn 0.7390 0.0000 -0.6737
vn 0.5132 0.0000 -0.8582
vn -0.6203 0.0000 0.7843
vn -0.4318 0.0000 0.9020
vn -0.0134 0.0000 -0.9999
vn -0.4870 0.0000 0.8734
vn -0.0816 0.0000 -0.9967
vn -0.7392 0.0000 0.6735
vn -0.0813 0.0000 0.9967
vn -0.4552 0.0000 0.8904
vn 0.9780 0.0000 0.2087
vn 0.7034 0.0000 -0.7108
vn 0.4258 0.0000 -0.9048
vn 0.1630 0.0000 -0.9866
vn 0.2259 0.0000 -0.9741
vn -0.7805 0.0000 0.6252
vn 0.8052 0.0000 -0.5929
vn 0.6959 0.0000 -0.7182
vn -0.7980 0.0000 0.6027
vn 0.9367 0.0000 -0.3501
# 55 vertex normals

vt 0.0000 0.0000 0.0000
# 1 texture coords

g Line011
usemtl wire_088144225
s 1
f 1/1/1 2/1/1 3/1/1 4/1/1 
f 5/1/1 6/1/1 7/1/1 8/1/1 
f 7/1/1 6/1/1 9/1/1 10/1/1 
f 11/1/1 12/1/1 10/1/1 9/1/1 
f 13/1/1 12/1/1 11/1/1 14/1/1 
f 15/1/1 16/1/1 13/1/1 14/1/1 
f 17/1/1 16/1/1 15/1/1 18/1/1 
f 19/1/1 16/1/1 17/1/1 20/1/1 
f 17/1/1 21/1/1 22/1/1 20/1/1 
f 23/1/1 22/1/1 21/1/1 24/1/1 
f 25/1/1 26/1/1 23/1/1 24/1/1 
f 26/1/1 25/1/1 27/1/1 28/1/1 
f 29/1/1 26/1/1 28/1/1 30/1/1 
f 29/1/1 30/1/1 31/1/1 32/1/1 
f 33/1/1 31/1/1 30/1/1 34/1/1 
f 35/1/1 31/1/1 33/1/1 36/1/1 
f 37/1/1 35/1/1 36/1/1 4/1/1 
f 3/1/1 37/1/1 4/1/1 
f 38/1/1 39/1/1 40/1/1 41/1/1 
f 40/1/1 42/1/1 43/1/1 41/1/1 
f 43/1/1 44/1/1 45/1/1 41/1/1 
f 44/1/1 46/1/1 47/1/1 45/1/1 
f 48/1/1 4/1/1 47/1/1 46/1/1 
f 1/1/1 4/1/1 48/1/1 
f 49/1/2 50/1/2 51/1/2 52/1/2 
f 53/1/2 54/1/2 55/1/2 56/1/2 
f 57/1/2 56/1/2 55/1/2 58/1/2 
f 58/1/2 59/1/2 60/1/2 57/1/2 
f 61/1/2 60/1/2 59/1/2 62/1/2 
f 63/1/2 61/1/2 62/1/2 64/1/2 
f 64/1/2 65/1/2 66/1/2 63/1/2 
f 67/1/2 65/1/2 64/1/2 68/1/2 
f 69/1/2 65/1/2 67/1/2 70/1/2 
f 71/1/2 69/1/2 70/1/2 72/1/2 
f 72/1/2 73/1/2 74/1/2 71/1/2 
f 75/1/2 76/1/2 74/1/2 73/1/2 
f 73/1/2 77/1/2 78/1/2 75/1/2 
f 79/1/2 80/1/2 78/1/2 77/1/2 
f 81/1/2 78/1/2 80/1/2 82/1/2 
f 82/1/2 80/1/2 83/1/2 84/1/2 
f 85/1/2 51/1/2 84/1/2 83/1/2 
f 51/1/2 85/1/2 52/1/2 
f 86/1/2 87/1/2 88/1/2 89/1/2 
f 88/1/2 87/1/2 90/1/2 91/1/2 
f 92/1/2 90/1/2 87/1/2 93/1/2 
f 94/1/2 92/1/2 93/1/2 95/1/2 
f 95/1/2 51/1/2 96/1/2 94/1/2 
f 96/1/2 51/1/2 50/1/2 
s 2
f 1/1/3 50/1/3 49/1/4 2/1/4 
s 4
f 2/1/5 49/1/5 52/1/6 3/1/6 
s 2
f 54/1/7 53/1/7 5/1/7 8/1/7 
s 4
f 53/1/8 56/1/8 6/1/8 5/1/8 
s 8
f 55/1/9 54/1/10 8/1/10 7/1/9 
s 2
f 56/1/11 57/1/12 9/1/12 6/1/11 
s 8
f 58/1/13 55/1/9 7/1/9 10/1/13 
s 2
f 60/1/14 11/1/14 9/1/12 57/1/12 
s 8
f 58/1/13 10/1/13 12/1/15 59/1/15 
s 2
f 11/1/14 60/1/14 61/1/16 14/1/16 
s 8
f 12/1/15 13/1/17 62/1/17 59/1/15 
s 2
f 14/1/16 61/1/16 63/1/18 15/1/18 
s 8
f 16/1/19 64/1/19 62/1/17 13/1/17 
s 2
f 66/1/20 18/1/20 15/1/18 63/1/18 
f 17/1/21 18/1/20 66/1/20 65/1/21 
s 8
f 16/1/19 19/1/22 68/1/22 64/1/19 
s 4
f 67/1/23 68/1/24 19/1/24 20/1/23 
s 2
f 17/1/21 65/1/21 69/1/25 21/1/25 
s 4
f 22/1/26 70/1/26 67/1/23 20/1/23 
s 2
f 69/1/25 71/1/27 24/1/27 21/1/25 
s 4
f 23/1/28 72/1/28 70/1/26 22/1/26 
s 2
f 71/1/27 74/1/29 25/1/29 24/1/27 
s 4
f 73/1/30 72/1/28 23/1/28 26/1/30 
s 2
f 76/1/31 27/1/31 25/1/29 74/1/29 
f 76/1/31 75/1/32 28/1/32 27/1/31 
s 4
f 26/1/30 29/1/33 77/1/33 73/1/30 
f 28/1/34 75/1/34 78/1/35 30/1/35 
f 79/1/36 77/1/33 29/1/33 32/1/36 
f 32/1/36 31/1/37 80/1/37 79/1/36 
f 34/1/38 30/1/35 78/1/35 81/1/38 
f 33/1/39 34/1/38 81/1/38 82/1/39 
f 80/1/37 31/1/37 35/1/40 83/1/40 
f 84/1/41 36/1/41 33/1/39 82/1/39 
f 85/1/42 83/1/40 35/1/40 37/1/42 
f 51/1/43 4/1/43 36/1/41 84/1/41 
f 37/1/42 3/1/6 52/1/6 85/1/42 
f 38/1/44 41/1/45 87/1/45 86/1/44 
s 2
f 39/1/46 38/1/46 86/1/46 89/1/46 
s 4
f 89/1/47 88/1/48 40/1/48 39/1/47 
f 40/1/48 88/1/48 91/1/49 42/1/49 
f 42/1/49 91/1/49 90/1/50 43/1/50 
f 93/1/51 87/1/45 41/1/45 45/1/51 
s 2
f 90/1/4 92/1/52 44/1/52 43/1/4 
f 92/1/52 94/1/53 46/1/53 44/1/52 
s 4
f 93/1/51 45/1/51 47/1/54 95/1/54 
s 2
f 94/1/53 96/1/55 48/1/55 46/1/53 
s 4
f 51/1/43 95/1/54 47/1/54 4/1/43 
s 2
f 50/1/3 1/1/3 48/1/55 96/1/55 
# 92 polygons - 4 triangles

#
# object Line012
#

v  -159.8170 -11.7298 -970.3342
v  -164.8727 -11.7298 -1016.3500
v  -214.5756 -11.7298 -1015.8002
v  -244.8859 -11.7298 -974.6974
v  -958.3527 -11.7298 -1121.8417
v  -921.4858 -11.7298 -1131.9487
v  -914.6605 -11.7298 -1158.8491
v  -956.8538 -11.7298 -1164.4442
v  -868.2323 -11.7298 -1126.6274
v  -852.8047 -11.7298 -1156.8054
v  -810.3355 -11.7298 -1112.5674
v  -795.3173 -11.7298 -1138.6490
v  -757.3559 -11.7298 -1118.3064
v  -768.1412 -11.7298 -1093.1809
v  -722.8065 -11.7298 -1077.6180
v  -669.0082 -11.7298 -1091.5498
v  -594.1790 -11.7298 -1067.5231
v  -625.1745 -11.7298 -1060.9666
v  -567.5475 -11.7298 -1002.8021
v  -552.5293 -11.7298 -1028.8835
v  -453.5298 -11.7298 -984.5132
v  -485.2107 -11.7298 -1012.5029
v  -359.3120 -11.7298 -975.0986
v  -440.1489 -11.7298 -994.2091
v  -354.2614 -11.7298 -998.0388
v  -407.2411 -11.7298 -992.2999
v  -289.8101 -11.7298 -980.5656
v  -291.1777 -11.7298 -1008.2844
v  -227.6784 -11.7298 -939.8793
v  -173.8791 -11.7298 -940.0198
v  -255.6497 -11.7298 -659.9568
v  -285.4142 -11.7298 -624.3159
v  -252.6407 -11.7298 -593.4587
v  -222.3284 -11.7298 -606.9791
v  -212.5002 -11.7298 -650.1285
v  -210.3192 -11.7298 -699.5586
v  -230.5305 -11.7298 -731.9186
v  -253.1967 -11.7298 -725.9089
v  -218.3797 -11.7298 -756.9076
v  -241.8677 -11.7298 -784.0786
v  -195.1676 -11.7298 -768.3793
v  -199.1296 -11.7298 -797.7365
v  -236.6828 -11.7298 -835.9667
v  -195.9924 -11.7298 -842.9336
v  -243.7871 -11.7298 -889.0828
v  -181.7939 -11.7298 -874.6135
v  -189.9888 -11.7298 -903.0145
v  -244.8859 -12.5886 -974.6974
v  -214.5756 -12.5886 -1015.8002
v  -164.8727 -12.5886 -1016.3500
v  -159.8170 -12.5886 -970.3342
v  -958.3527 -12.5886 -1121.8417
v  -956.8538 -12.5886 -1164.4442
v  -914.6605 -12.5886 -1158.8491
v  -921.4858 -12.5886 -1131.9487
v  -868.2323 -12.5886 -1126.6274
v  -852.8047 -12.5886 -1156.8054
v  -795.3173 -12.5886 -1138.6490
v  -810.3355 -12.5886 -1112.5674
v  -757.3559 -12.5886 -1118.3064
v  -768.1412 -12.5886 -1093.1809
v  -722.8065 -12.5886 -1077.6180
v  -669.0082 -12.5886 -1091.5498
v  -625.1745 -12.5886 -1060.9666
v  -594.1790 -12.5886 -1067.5231
v  -552.5293 -12.5886 -1028.8835
v  -567.5475 -12.5886 -1002.8021
v  -485.2107 -12.5886 -1012.5029
v  -453.5298 -12.5886 -984.5132
v  -440.1489 -12.5886 -994.2091
v  -359.3120 -12.5886 -975.0986
v  -354.2614 -12.5886 -998.0388
v  -407.2411 -12.5886 -992.2999
v  -289.8101 -12.5886 -980.5656
v  -291.1777 -12.5886 -1008.2844
v  -173.8791 -12.5886 -940.0198
v  -227.6784 -12.5886 -939.8793
v  -222.3284 -12.5886 -606.9791
v  -252.6407 -12.5886 -593.4587
v  -285.4142 -12.5886 -624.3159
v  -255.6497 -12.5886 -659.9568
v  -212.5002 -12.5886 -650.1285
v  -210.3192 -12.5886 -699.5586
v  -253.1967 -12.5886 -725.9089
v  -230.5305 -12.5886 -731.9186
v  -241.8677 -12.5886 -784.0786
v  -218.3797 -12.5886 -756.9076
v  -199.1296 -12.5886 -797.7365
v  -195.1676 -12.5886 -768.3793
v  -195.9924 -12.5886 -842.9336
v  -236.6828 -12.5886 -835.9667
v  -181.7939 -12.5886 -874.6135
v  -243.7871 -12.5886 -889.0828
v  -189.9888 -12.5886 -903.0145
# 94 vertices

vn 0.0000 1.0000 -0.0000
vn 0.0000 -1.0000 -0.0000
vn 0.9868 0.0000 0.1617
vn 0.9940 0.0000 -0.1092
vn -0.0544 0.0000 -0.9985
vn -0.0111 0.0000 -0.9999
vn -0.9994 0.0000 -0.0352
vn 0.2644 0.0000 0.9644
vn 0.0839 0.0000 0.9965
vn 0.0823 0.0000 -0.9966
vn 0.1315 0.0000 -0.9913
vn -0.1681 0.0000 0.9858
vn 0.1687 0.0000 -0.9857
vn -0.3283 0.0000 0.9446
vn 0.3884 0.0000 -0.9215
vn -0.3716 0.0000 0.9284
vn 0.3830 0.0000 -0.9238
vn -0.2472 0.0000 0.9690
vn 0.2978 0.0000 -0.9546
vn -0.4613 0.0000 0.8872
vn 0.5049 0.0000 -0.8632
vn -0.4569 0.0000 0.8895
vn 0.4735 0.0000 -0.8808
vn -0.1290 0.0000 0.9916
vn 0.3071 0.0000 -0.9517
vn 0.2200 0.0000 -0.9755
vn -0.0105 0.0000 0.9999
vn -0.0250 0.0000 -0.9997
vn -0.1341 0.0000 -0.9910
vn -0.0257 0.0000 0.9997
vn -0.1290 0.0000 -0.9916
vn -0.1295 0.0000 0.9916
vn -0.9971 0.0000 0.0759
vn -0.8965 0.0000 0.4431
vn -0.9336 0.0000 -0.3583
vn -0.7675 0.0000 -0.6410
vn -0.6855 0.0000 0.7281
vn 0.4074 0.0000 0.9133
vn 0.9910 0.0000 0.1336
vn 0.9750 0.0000 0.2221
vn 0.9671 0.0000 -0.2543
vn -0.9934 0.0000 -0.1145
vn 0.8482 0.0000 -0.5297
vn -0.9894 0.0000 -0.1455
vn 0.8993 0.0000 0.4373
vn 0.7094 0.0000 0.7048
vn 0.4431 0.0000 0.8965
vn 0.9995 0.0000 -0.0324
vn 0.9910 0.0000 -0.1337
vn -0.9999 0.0000 0.0167
vn 0.9701 0.0000 0.2429
vn 0.9975 0.0000 0.0702
vn -0.9962 0.0000 -0.0870
vn 0.9979 0.0000 0.0648
vn 0.9121 0.0000 0.4100
# 55 vertex normals

vt 0.0000 0.0000 0.0000
# 1 texture coords

g Line012
usemtl wire_088144225
s 1
f 97/2/56 98/2/56 99/2/56 100/2/56 
f 101/2/56 102/2/56 103/2/56 104/2/56 
f 103/2/56 102/2/56 105/2/56 106/2/56 
f 107/2/56 108/2/56 106/2/56 105/2/56 
f 109/2/56 108/2/56 107/2/56 110/2/56 
f 111/2/56 112/2/56 109/2/56 110/2/56 
f 113/2/56 112/2/56 111/2/56 114/2/56 
f 115/2/56 116/2/56 113/2/56 114/2/56 
f 117/2/56 118/2/56 116/2/56 115/2/56 
f 119/2/56 120/2/56 118/2/56 117/2/56 
f 119/2/56 121/2/56 122/2/56 120/2/56 
f 121/2/56 119/2/56 123/2/56 124/2/56 
f 99/2/56 124/2/56 123/2/56 100/2/56 
f 97/2/56 100/2/56 125/2/56 126/2/56 
f 127/2/56 128/2/56 129/2/56 130/2/56 
f 130/2/56 131/2/56 132/2/56 127/2/56 
f 133/2/56 134/2/56 127/2/56 132/2/56 
f 133/2/56 135/2/56 136/2/56 134/2/56 
f 137/2/56 138/2/56 136/2/56 135/2/56 
f 139/2/56 136/2/56 138/2/56 140/2/56 
f 141/2/56 139/2/56 140/2/56 142/2/56 
f 143/2/56 125/2/56 141/2/56 142/2/56 
f 125/2/56 143/2/56 126/2/56 
f 144/2/57 145/2/57 146/2/57 147/2/57 
f 148/2/57 149/2/57 150/2/57 151/2/57 
f 152/2/57 151/2/57 150/2/57 153/2/57 
f 153/2/57 154/2/57 155/2/57 152/2/57 
f 154/2/57 156/2/57 157/2/57 155/2/57 
f 158/2/57 157/2/57 156/2/57 159/2/57 
f 160/2/57 158/2/57 159/2/57 161/2/57 
f 161/2/57 162/2/57 163/2/57 160/2/57 
f 162/2/57 164/2/57 165/2/57 163/2/57 
f 164/2/57 166/2/57 167/2/57 165/2/57 
f 168/2/57 167/2/57 166/2/57 169/2/57 
f 170/2/57 167/2/57 168/2/57 171/2/57 
f 171/2/57 145/2/57 144/2/57 170/2/57 
f 144/2/57 147/2/57 172/2/57 173/2/57 
f 174/2/57 175/2/57 176/2/57 177/2/57 
f 178/2/57 174/2/57 177/2/57 179/2/57 
f 180/2/57 181/2/57 179/2/57 177/2/57 
f 182/2/57 183/2/57 181/2/57 180/2/57 
f 183/2/57 182/2/57 184/2/57 185/2/57 
f 186/2/57 184/2/57 182/2/57 187/2/57 
f 188/2/57 186/2/57 187/2/57 189/2/57 
f 189/2/57 173/2/57 190/2/57 188/2/57 
f 172/2/57 190/2/57 173/2/57 
s 2
f 147/2/58 146/2/59 98/2/59 97/2/58 
s 4
f 99/2/60 98/2/61 146/2/61 145/2/60 
s 2
f 149/2/62 148/2/62 101/2/62 104/2/62 
s 4
f 148/2/63 151/2/64 102/2/64 101/2/63 
f 150/2/65 149/2/66 104/2/66 103/2/65 
f 151/2/64 152/2/67 105/2/67 102/2/64 
f 153/2/68 150/2/65 103/2/65 106/2/68 
f 155/2/69 107/2/69 105/2/67 152/2/67 
f 153/2/68 106/2/68 108/2/70 154/2/70 
f 157/2/71 110/2/71 107/2/69 155/2/69 
f 108/2/70 109/2/72 156/2/72 154/2/70 
f 110/2/71 157/2/71 158/2/73 111/2/73 
f 112/2/74 159/2/74 156/2/72 109/2/72 
f 158/2/73 160/2/75 114/2/75 111/2/73 
f 161/2/76 159/2/74 112/2/74 113/2/76 
f 114/2/75 160/2/75 163/2/77 115/2/77 
f 116/2/78 162/2/78 161/2/76 113/2/76 
f 115/2/77 163/2/77 165/2/79 117/2/79 
f 118/2/80 164/2/80 162/2/78 116/2/78 
f 118/2/80 120/2/81 166/2/81 164/2/80 
f 165/2/79 167/2/82 119/2/82 117/2/79 
f 169/2/83 166/2/81 120/2/81 122/2/83 
f 168/2/84 169/2/83 122/2/83 121/2/84 
f 170/2/85 123/2/85 119/2/82 167/2/82 
f 171/2/86 168/2/84 121/2/84 124/2/86 
f 145/2/60 171/2/86 124/2/86 99/2/60 
f 123/2/85 170/2/85 144/2/87 100/2/87 
s 2
f 125/2/88 100/2/89 144/2/89 173/2/88 
f 177/2/90 176/2/91 128/2/91 127/2/90 
s 4
f 129/2/92 128/2/92 176/2/92 175/2/92 
s 2
f 130/2/93 129/2/93 175/2/93 174/2/93 
s 4
f 178/2/94 131/2/94 130/2/95 174/2/95 
f 131/2/94 178/2/94 179/2/96 132/2/96 
s 2
f 177/2/90 127/2/90 134/2/97 180/2/97 
s 4
f 179/2/96 181/2/98 133/2/98 132/2/96 
s 2
f 182/2/99 180/2/97 134/2/97 136/2/99 
s 8
f 133/2/100 181/2/100 183/2/101 135/2/101 
f 137/2/102 135/2/101 183/2/101 185/2/102 
s 2
f 184/2/103 138/2/103 137/2/104 185/2/104 
f 187/2/105 182/2/99 136/2/99 139/2/105 
f 140/2/106 138/2/103 184/2/103 186/2/106 
f 188/2/107 142/2/107 140/2/106 186/2/106 
f 189/2/108 187/2/105 139/2/105 141/2/108 
f 188/2/107 190/2/109 143/2/109 142/2/107 
f 173/2/88 189/2/108 141/2/108 125/2/88 
f 190/2/109 172/2/110 126/2/110 143/2/109 
f 172/2/110 147/2/58 97/2/58 126/2/110 
# 91 polygons - 2 triangles

